<mxfile host="app.diagrams.net" modified="2022-04-26T07:59:00.746Z" agent="5.0 (Windows NT 6.1; Win64; x64) AppleWebKit/537.36 (KHTML, like Gecko) Chrome/100.0.4896.127 Safari/537.36" etag="6jPggaY4iAUsiOndu2JA" version="17.4.6" type="github">
  <diagram id="AFl2Kn9QIu3BIR2czrgI" name="第 1 页">
    <mxGraphModel dx="1790" dy="836" grid="1" gridSize="10" guides="1" tooltips="1" connect="1" arrows="1" fold="1" page="1" pageScale="1" pageWidth="827" pageHeight="1169" math="0" shadow="0">
      <root>
        <mxCell id="0" />
        <mxCell id="1" parent="0" />
        <mxCell id="cN51UcoO55gKVNKSAqcl-3" style="edgeStyle=orthogonalEdgeStyle;rounded=0;orthogonalLoop=1;jettySize=auto;html=1;entryX=0.5;entryY=0;entryDx=0;entryDy=0;" edge="1" parent="1" source="cN51UcoO55gKVNKSAqcl-1" target="cN51UcoO55gKVNKSAqcl-2">
          <mxGeometry relative="1" as="geometry" />
        </mxCell>
        <mxCell id="cN51UcoO55gKVNKSAqcl-1" value="&amp;nbsp;项目上传到CrawLab" style="rounded=0;whiteSpace=wrap;html=1;" vertex="1" parent="1">
          <mxGeometry x="280" y="180" width="120" height="60" as="geometry" />
        </mxCell>
        <mxCell id="cN51UcoO55gKVNKSAqcl-5" style="edgeStyle=orthogonalEdgeStyle;rounded=0;orthogonalLoop=1;jettySize=auto;html=1;entryX=0.5;entryY=0;entryDx=0;entryDy=0;" edge="1" parent="1" source="cN51UcoO55gKVNKSAqcl-2" target="cN51UcoO55gKVNKSAqcl-4">
          <mxGeometry relative="1" as="geometry" />
        </mxCell>
        <mxCell id="cN51UcoO55gKVNKSAqcl-2" value="把项目分组到News_Platfrom" style="rounded=0;whiteSpace=wrap;html=1;" vertex="1" parent="1">
          <mxGeometry x="280" y="280" width="120" height="60" as="geometry" />
        </mxCell>
        <mxCell id="cN51UcoO55gKVNKSAqcl-7" style="edgeStyle=orthogonalEdgeStyle;rounded=0;orthogonalLoop=1;jettySize=auto;html=1;entryX=0.5;entryY=0;entryDx=0;entryDy=0;" edge="1" parent="1" source="cN51UcoO55gKVNKSAqcl-4" target="cN51UcoO55gKVNKSAqcl-6">
          <mxGeometry relative="1" as="geometry" />
        </mxCell>
        <mxCell id="cN51UcoO55gKVNKSAqcl-4" value="爬虫市场安装相关依赖" style="rounded=0;whiteSpace=wrap;html=1;" vertex="1" parent="1">
          <mxGeometry x="280" y="380" width="120" height="60" as="geometry" />
        </mxCell>
        <mxCell id="cN51UcoO55gKVNKSAqcl-9" style="edgeStyle=orthogonalEdgeStyle;rounded=0;orthogonalLoop=1;jettySize=auto;html=1;entryX=0.5;entryY=0;entryDx=0;entryDy=0;" edge="1" parent="1" source="cN51UcoO55gKVNKSAqcl-6" target="cN51UcoO55gKVNKSAqcl-8">
          <mxGeometry relative="1" as="geometry" />
        </mxCell>
        <mxCell id="cN51UcoO55gKVNKSAqcl-6" value="配置Git" style="rounded=0;whiteSpace=wrap;html=1;" vertex="1" parent="1">
          <mxGeometry x="280" y="480" width="120" height="60" as="geometry" />
        </mxCell>
        <mxCell id="cN51UcoO55gKVNKSAqcl-8" value="项目定时" style="rounded=0;whiteSpace=wrap;html=1;" vertex="1" parent="1">
          <mxGeometry x="280" y="580" width="120" height="60" as="geometry" />
        </mxCell>
      </root>
    </mxGraphModel>
  </diagram>
</mxfile>
